<?xml version="1.0" encoding="utf-8"?>
<!-- Generator: Adobe Illustrator 29.4.0, SVG Export Plug-In . SVG Version: 9.03 Build 0)  -->
<svg version="1.1" xmlns="http://www.w3.org/2000/svg" xmlns:xlink="http://www.w3.org/1999/xlink" x="0px" y="0px"
	 viewBox="0 0 1024 1024" style="enable-background:new 0 0 1024 1024;" xml:space="preserve">
<g>
</g>
<g id="checkers">
	<g>
		<path style="fill:#FFFFFF;" d="M896.7763672,512V373.9428711c0-9.4282837,0.0040894-18.8552856-0.0556641-28.2839966
			c-0.0453491-7.9413147-0.1373291-15.8813477-0.3522949-23.8204956c-0.4689941-17.300415-1.4871826-34.750824-4.5628052-51.8590698
			c-3.1195068-17.355423-8.2110596-33.5084381-16.2377319-49.2771454
			c-7.888855-15.4987335-18.1975708-29.6815948-30.4949341-41.9789581
			c-12.2971191-12.2973633-26.4802246-22.6060638-41.9789429-30.4949341
			c-15.7687378-8.0268555-31.9217529-13.1180115-49.2773438-16.2377014
			c-17.1080322-3.0758514-34.5584717-4.0938263-51.8588867-4.5628281
			c-7.9391479-0.2149506-15.8791504-0.3069458-23.8204956-0.3525085
			c-9.4284668-0.0597534-18.8554688-0.0554581-28.2842407-0.0554581H511.3486938V512H896.7763672z"/>
		<path style="fill:#FFFFFF;" d="M127.2236252,512v138.0571289c0,9.4282837-0.0040817,18.8552856,0.0556717,28.2839966
			c0.0453491,7.9413452,0.137352,15.8813477,0.3522949,23.8204956c0.4690094,17.300415,1.4871979,34.7508545,4.5628204,51.8590698
			c3.1194763,17.3554077,8.2110748,33.5084229,16.2377167,49.2771606
			c7.8888702,15.4987183,18.1975708,29.6815796,30.4949341,41.9789429
			c12.2971497,12.2973633,26.4802094,22.6060791,41.9789429,30.4949341
			c15.7687073,8.0268555,31.9217377,13.118042,49.2773743,16.2377319
			c17.1080017,3.0758057,34.5584412,4.093811,51.8588257,4.5628052c7.9391785,0.2149658,15.8791809,0.3069458,23.8204956,0.352478
			c9.4285278,0.0597534,18.8555298,0.055481,28.2842407,0.055481h137.2017517V512H127.2236252z"/>
	</g>
</g>
</svg>
