<?xml version="1.0" encoding="utf-8"?>
<!-- Generator: Adobe Illustrator 29.4.0, SVG Export Plug-In . SVG Version: 9.03 Build 0)  -->
<svg version="1.1" xmlns="http://www.w3.org/2000/svg" xmlns:xlink="http://www.w3.org/1999/xlink" x="0px" y="0px"
	 viewBox="0 0 1024 1024" style="enable-background:new 0 0 1024 1024;" xml:space="preserve">
<g>
</g>
<g id="horse">
	<path style="fill:#A67C4F;" d="M482.394165,213.4869385c-10.2239075,0-20.2644958,0.7848511-30.0647888,2.2976227
		c-4.48703,0.6926117-9.0411072-0.5835876-12.4570007-3.5743713c-9.2713928-8.117569-21.8145447-17.5102844-37.7351685-24.0960083
		c-6.6218567-2.739212-13.0581665,4.2678833-9.7262573,10.6122131l21.4422302,40.828537L249.3168793,363.9444885
		c-0.7672577,0.5800476-1.5344086,1.1596069-2.3016663,1.7457581c-0.6462555,0.4931946-1.2923584,0.9910278-1.9384155,1.5013733
		c-1.4078369,1.1121826-2.8278961,2.2896118-4.2200928,3.6558533c-1.4123383,1.3859863-2.7267914,2.8991089-4.0100098,4.6880493
		c-1.2612152,1.7582703-2.41539,3.6824646-3.4160919,5.6934814s-1.8395691,4.0920715-2.4815521,6.1585083
		c-0.6531677,2.1024475-1.0675049,4.0635071-1.3213806,6.0259399c-0.2502594,1.9344788-0.3331299,3.7773132-0.3712769,5.5710449
		c-0.0175171,0.8231201-0.0249786,1.6387329-0.0286865,2.4516907c-0.0048523,0.9655151-0.0045166,1.9269714-0.0045166,2.8888245l0,0
		l0.0000153,12.3589172c0,1.2148743-0.0005188,2.4295654,0.0071564,3.6444397
		c0.0058746,1.0232544,0.0176849,2.0462952,0.0454102,3.0692444c0.0604248,2.229126,0.1916199,4.4776306,0.5878754,6.6820068
		c0.4019928,2.2362671,1.0580292,4.3175659,2.0922546,6.3493958c1.0164948,1.9969788,2.3447571,3.8244629,3.929245,5.4089661
		c1.5845032,1.5845032,3.4119873,2.9127502,5.4089813,3.9292603c2.0318298,1.0342102,4.1131134,1.6902466,6.3493805,2.0922546
		c2.2043915,0.3962402,4.4528809,0.5274353,6.6820068,0.5878601c1.0229492,0.0277405,2.0460052,0.0395203,3.0692596,0.0454102
		c1.2148743,0.0076904,2.4295349,0.0071716,3.6444092,0.0071716l0.9579773,2.6430054
		c3.65802,10.0979919,12.7630005,17.4309998,23.4700012,18.276001c12.0658569,0.9537964,23.1632385-6.1624451,27.4269409-17.2941589
		c2.6879578-7.0177917,9.341095-11.7158508,16.8560791-11.7158508h11.6864929
		c15.6217957,0,30.9541626-4.2151489,44.3804932-12.2009888l0.8439941-0.5020142
		c1.6972656-1.0105286,3.8271179-0.9680176,5.4867859,0.1245422c13.5975037,8.9512634,30.026825,12.5784607,46.3061829,12.5784607
		h4.9134521c3.3690796,0,6.0872192,2.737793,6.0872192,6.1068726c0,77.9104004-60.2687073,142.2662354-64.3406372,217.644104
		h255.8110046c0-83.3319702,36.9550171-168.8019714,36.9550171-255.1869812
		C677.880188,301.0089417,590.3582153,213.4869385,482.394165,213.4869385"/>
</g>
</svg>
